<svg width="326" height="115" viewBox="0 0 326 115" fill="none" xmlns="http://www.w3.org/2000/svg">
    <path d="M44.3639 22.0997C44.0901 19.3389 42.9151 17.1942 40.8388 15.6655C38.7626 14.1369 35.9448 13.3725 32.3855 13.3725C29.967 13.3725 27.925 13.7148 26.2594 14.3992C24.5938 15.0609 23.3161 15.985 22.4263 17.1714C21.5593 18.3578 21.1258 19.704 21.1258 21.2098C21.0801 22.4647 21.3425 23.5599 21.9129 24.4953C22.5061 25.4308 23.3161 26.2408 24.3428 26.9253C25.3696 27.5869 26.556 28.1687 27.9021 28.6707C29.2483 29.1498 30.6857 29.5605 32.2144 29.9027L38.5116 31.4086C41.569 32.0931 44.3753 33.0057 46.9307 34.1465C49.4861 35.2873 51.6993 36.6905 53.5702 38.3561C55.4411 40.0217 56.8899 41.9839 57.9167 44.2426C58.9662 46.5014 59.5024 49.0911 59.5252 52.0115C59.5024 56.3009 58.4072 60.0199 56.2397 63.1686C54.095 66.2944 50.992 68.7243 46.9307 70.4583C42.8923 72.1695 38.0211 73.0251 32.317 73.0251C26.6587 73.0251 21.7304 72.1581 17.5322 70.4241C13.3569 68.69 10.0942 66.1232 7.74416 62.7236C5.41692 59.3012 4.19626 55.0689 4.08218 50.0265H18.4221C18.5818 52.3766 19.2549 54.3387 20.4413 55.9131C21.6505 57.4645 23.2591 58.6396 25.2669 59.4381C27.2975 60.2139 29.5905 60.6017 32.1459 60.6017C34.6557 60.6017 36.8346 60.2367 38.6827 59.5066C40.5536 58.7765 42.0025 57.7612 43.0292 56.4606C44.0559 55.1601 44.5693 53.6657 44.5693 51.9773C44.5693 50.403 44.1015 49.0796 43.1661 48.0073C42.2534 46.9349 40.9073 46.0223 39.1276 45.2694C37.3708 44.5164 35.2147 43.832 32.6593 43.2159L25.0273 41.2994C19.118 39.862 14.4521 37.6146 11.0297 34.5572C7.60726 31.4999 5.90747 27.3816 5.93028 22.2023C5.90747 17.9585 7.03686 14.2509 9.31847 11.0795C11.6229 7.90808 14.7829 5.43253 18.7985 3.65288C22.8142 1.87323 27.3774 0.983401 32.4882 0.983401C37.6902 0.983401 42.2306 1.87323 46.1094 3.65288C50.0109 5.43253 53.0454 7.90808 55.213 11.0795C57.3805 14.2509 58.4985 17.9243 58.5669 22.0997H44.3639ZM69.493 72.0326V1.94168H116.722V14.1597H84.312V30.861H114.292V43.079H84.312V59.8146H116.859V72.0326H69.493ZM128.504 72.0326V1.94168H143.323V59.8146H173.372V72.0326H128.504ZM183.185 72.0326V1.94168H229.593V14.1597H198.004V30.861H226.513V43.079H198.004V72.0326H183.185ZM254.38 1.94168V72.0326H239.561V1.94168H254.38ZM263.903 14.1597V1.94168H321.468V14.1597H300.009V72.0326H285.361V14.1597H263.903Z" fill="black"/>
    <path fill-rule="evenodd" clip-rule="evenodd" d="M202.387 43.1373H226.513V30.9193H202.387V43.1373ZM202.387 14.218H229.593V2H202.387V14.218ZM254.38 72.0909V2H239.561V72.0909H254.38ZM263.903 2V14.218H285.361V72.0909H300.009V14.218H321.467V2H263.903Z" fill="black"/>
    <path d="M48.7514 100.43H50.7464V108.11H48.7514V100.43ZM50.2064 103.595H52.5914V105.23H50.2064V103.595ZM44.7764 101.21H46.9364C46.9364 102.45 46.6864 103.54 46.1864 104.48C45.6964 105.42 44.9714 106.21 44.0114 106.85C43.0614 107.48 41.8814 107.965 40.4714 108.305L39.7364 106.7C40.9064 106.44 41.8614 106.09 42.6014 105.65C43.3414 105.21 43.8864 104.705 44.2364 104.135C44.5964 103.555 44.7764 102.94 44.7764 102.29V101.21ZM40.4114 101.21H46.0364V102.8H40.4114V101.21ZM45.2114 109.58H46.9064V109.925C46.9064 110.465 46.7964 110.975 46.5764 111.455C46.3564 111.935 46.0264 112.37 45.5864 112.76C45.1564 113.14 44.6214 113.46 43.9814 113.72C43.3414 113.99 42.6014 114.18 41.7614 114.29L41.0414 112.775C41.7614 112.695 42.3814 112.56 42.9014 112.37C43.4314 112.17 43.8664 111.94 44.2064 111.68C44.5464 111.41 44.7964 111.125 44.9564 110.825C45.1264 110.525 45.2114 110.225 45.2114 109.925V109.58ZM45.6614 109.58H47.3564V109.925C47.3564 110.215 47.4364 110.51 47.5964 110.81C47.7664 111.11 48.0214 111.395 48.3614 111.665C48.7114 111.925 49.1464 112.155 49.6664 112.355C50.1864 112.555 50.8014 112.705 51.5114 112.805L50.8064 114.32C49.9664 114.2 49.2264 114.005 48.5864 113.735C47.9464 113.465 47.4064 113.135 46.9664 112.745C46.5364 112.355 46.2114 111.92 45.9914 111.44C45.7714 110.95 45.6614 110.445 45.6614 109.925V109.58ZM41.6264 108.71H50.9264V110.27H41.6264V108.71ZM54.9153 101.615H63.7053V103.205H54.9153V101.615ZM53.6253 111.035H66.1953V112.655H53.6253V111.035ZM58.0653 106.265H60.0753V111.845H58.0653V106.265ZM62.9853 101.615H64.9953V102.935C64.9953 103.515 64.9853 104.13 64.9653 104.78C64.9553 105.43 64.9103 106.15 64.8303 106.94C64.7603 107.73 64.6303 108.615 64.4403 109.595L62.4453 109.385C62.7253 107.995 62.8853 106.785 62.9253 105.755C62.9653 104.715 62.9853 103.775 62.9853 102.935V101.615ZM80.4358 100.445H82.4308V108.14H80.4358V100.445ZM74.1508 100.925H75.8008V102.245C75.8008 103.105 75.6558 103.92 75.3658 104.69C75.0758 105.45 74.6308 106.115 74.0308 106.685C73.4408 107.255 72.6908 107.68 71.7808 107.96L70.8208 106.385C71.4008 106.205 71.9008 105.97 72.3208 105.68C72.7408 105.39 73.0858 105.06 73.3558 104.69C73.6258 104.32 73.8258 103.93 73.9558 103.52C74.0858 103.1 74.1508 102.675 74.1508 102.245V100.925ZM74.5558 100.925H76.1758V102.245C76.1758 102.665 76.2408 103.075 76.3708 103.475C76.5008 103.865 76.6958 104.235 76.9558 104.585C77.2158 104.925 77.5508 105.235 77.9608 105.515C78.3708 105.785 78.8558 106 79.4158 106.16L78.4558 107.72C77.7958 107.52 77.2208 107.245 76.7308 106.895C76.2408 106.535 75.8308 106.115 75.5008 105.635C75.1808 105.155 74.9408 104.63 74.7808 104.06C74.6308 103.48 74.5558 102.875 74.5558 102.245V100.925ZM73.0408 108.77H82.4908V110.345H73.0408V108.77ZM72.9058 112.61H82.6258V114.185H72.9058V112.61ZM74.6758 109.355H76.6408V113.525H74.6758V109.355ZM78.9058 109.355H80.8858V113.525H78.9058V109.355ZM84.6796 107.525H97.2496V109.1H84.6796V107.525ZM86.2096 112.49H95.8396V114.095H86.2096V112.49ZM86.2096 110.03H88.2046V113H86.2096V110.03ZM90.9646 100.85C91.9746 100.85 92.8546 100.965 93.6046 101.195C94.3646 101.425 94.9546 101.755 95.3746 102.185C95.7946 102.615 96.0046 103.12 96.0046 103.7C96.0046 104.29 95.7946 104.8 95.3746 105.23C94.9546 105.66 94.3646 105.99 93.6046 106.22C92.8546 106.45 91.9746 106.565 90.9646 106.565C89.9646 106.565 89.0846 106.45 88.3246 106.22C87.5746 105.99 86.9896 105.66 86.5696 105.23C86.1496 104.8 85.9396 104.29 85.9396 103.7C85.9396 103.12 86.1496 102.615 86.5696 102.185C86.9896 101.755 87.5746 101.425 88.3246 101.195C89.0846 100.965 89.9646 100.85 90.9646 100.85ZM90.9646 102.425C90.3546 102.425 89.8246 102.475 89.3746 102.575C88.9246 102.675 88.5846 102.82 88.3546 103.01C88.1246 103.19 88.0096 103.42 88.0096 103.7C88.0096 103.98 88.1246 104.215 88.3546 104.405C88.5846 104.595 88.9246 104.74 89.3746 104.84C89.8246 104.94 90.3546 104.99 90.9646 104.99C91.5946 104.99 92.1296 104.94 92.5696 104.84C93.0096 104.74 93.3446 104.595 93.5746 104.405C93.8146 104.215 93.9346 103.98 93.9346 103.7C93.9346 103.42 93.8146 103.19 93.5746 103.01C93.3446 102.82 93.0096 102.675 92.5696 102.575C92.1296 102.475 91.5946 102.425 90.9646 102.425ZM101.95 107.03H114.52V108.605H101.95V107.03ZM107.215 109.265H108.925V109.52C108.925 110.13 108.805 110.7 108.565 111.23C108.335 111.75 107.99 112.22 107.53 112.64C107.08 113.05 106.52 113.395 105.85 113.675C105.18 113.965 104.41 114.17 103.54 114.29L102.79 112.76C103.56 112.67 104.22 112.52 104.77 112.31C105.33 112.09 105.79 111.835 106.15 111.545C106.52 111.245 106.79 110.925 106.96 110.585C107.13 110.235 107.215 109.88 107.215 109.52V109.265ZM107.53 109.265H109.24V109.52C109.24 109.88 109.325 110.235 109.495 110.585C109.675 110.925 109.945 111.245 110.305 111.545C110.665 111.835 111.125 112.09 111.685 112.31C112.245 112.52 112.91 112.67 113.68 112.76L112.93 114.29C112.06 114.17 111.29 113.965 110.62 113.675C109.95 113.395 109.385 113.05 108.925 112.64C108.475 112.22 108.13 111.75 107.89 111.23C107.65 110.7 107.53 110.13 107.53 109.52V109.265ZM107.215 105.545H109.21V107.57H107.215V105.545ZM108.235 100.655C109.265 100.655 110.155 100.765 110.905 100.985C111.655 101.205 112.235 101.515 112.645 101.915C113.065 102.315 113.275 102.8 113.275 103.37C113.275 103.93 113.065 104.415 112.645 104.825C112.235 105.225 111.655 105.535 110.905 105.755C110.155 105.965 109.265 106.07 108.235 106.07C107.225 106.07 106.34 105.965 105.58 105.755C104.82 105.535 104.235 105.225 103.825 104.825C103.415 104.415 103.21 103.93 103.21 103.37C103.21 102.8 103.415 102.315 103.825 101.915C104.235 101.515 104.82 101.205 105.58 100.985C106.34 100.765 107.225 100.655 108.235 100.655ZM108.235 102.185C107.615 102.185 107.08 102.23 106.63 102.32C106.18 102.41 105.84 102.545 105.61 102.725C105.39 102.895 105.28 103.11 105.28 103.37C105.28 103.63 105.39 103.845 105.61 104.015C105.84 104.185 106.18 104.315 106.63 104.405C107.08 104.495 107.615 104.54 108.235 104.54C108.875 104.54 109.415 104.495 109.855 104.405C110.295 104.315 110.63 104.185 110.86 104.015C111.09 103.845 111.205 103.63 111.205 103.37C111.205 103.11 111.09 102.895 110.86 102.725C110.63 102.545 110.295 102.41 109.855 102.32C109.415 102.23 108.875 102.185 108.235 102.185ZM125.289 100.415H127.284V114.35H125.289V100.415ZM119.799 101.39C120.509 101.39 121.139 101.595 121.689 102.005C122.239 102.405 122.669 102.98 122.979 103.73C123.299 104.47 123.459 105.345 123.459 106.355C123.459 107.375 123.299 108.26 122.979 109.01C122.669 109.75 122.239 110.325 121.689 110.735C121.139 111.135 120.509 111.335 119.799 111.335C119.099 111.335 118.474 111.135 117.924 110.735C117.374 110.325 116.939 109.75 116.619 109.01C116.309 108.26 116.154 107.375 116.154 106.355C116.154 105.345 116.309 104.47 116.619 103.73C116.939 102.98 117.374 102.405 117.924 102.005C118.474 101.595 119.099 101.39 119.799 101.39ZM119.799 103.205C119.459 103.205 119.159 103.325 118.899 103.565C118.639 103.805 118.434 104.16 118.284 104.63C118.144 105.09 118.074 105.665 118.074 106.355C118.074 107.035 118.144 107.615 118.284 108.095C118.434 108.565 118.639 108.92 118.899 109.16C119.159 109.4 119.459 109.52 119.799 109.52C120.149 109.52 120.454 109.4 120.714 109.16C120.974 108.92 121.174 108.565 121.314 108.095C121.464 107.615 121.539 107.035 121.539 106.355C121.539 105.665 121.464 105.09 121.314 104.63C121.174 104.16 120.974 103.805 120.714 103.565C120.454 103.325 120.149 103.205 119.799 103.205ZM143.399 105.68H145.844V107.33H143.399V105.68ZM141.899 100.415H143.909V114.305H141.899V100.415ZM133.454 101.75H135.434V110.39H133.454V101.75ZM133.454 109.265H134.639C135.629 109.265 136.659 109.225 137.729 109.145C138.799 109.065 139.894 108.915 141.014 108.695L141.224 110.315C140.064 110.555 138.934 110.72 137.834 110.81C136.734 110.89 135.669 110.93 134.639 110.93H133.454V109.265ZM152.383 105.545H154.663V107.15H152.383V105.545ZM156.853 100.43H158.758V114.32H156.853V100.43ZM154.033 100.655H155.893V113.705H154.033V100.655ZM149.953 101.405C150.563 101.405 151.093 101.61 151.543 102.02C152.003 102.42 152.353 103 152.593 103.76C152.843 104.51 152.968 105.41 152.968 106.46C152.968 107.5 152.843 108.4 152.593 109.16C152.353 109.92 152.003 110.505 151.543 110.915C151.093 111.315 150.558 111.515 149.938 111.515C149.338 111.515 148.808 111.315 148.348 110.915C147.898 110.505 147.548 109.92 147.298 109.16C147.058 108.4 146.938 107.5 146.938 106.46C146.938 105.41 147.058 104.51 147.298 103.76C147.548 103 147.898 102.42 148.348 102.02C148.808 101.61 149.343 101.405 149.953 101.405ZM149.953 103.295C149.703 103.295 149.488 103.41 149.308 103.64C149.128 103.87 148.988 104.22 148.888 104.69C148.798 105.15 148.753 105.74 148.753 106.46C148.753 107.16 148.798 107.745 148.888 108.215C148.988 108.685 149.128 109.04 149.308 109.28C149.488 109.51 149.703 109.625 149.953 109.625C150.203 109.625 150.418 109.51 150.598 109.28C150.788 109.04 150.928 108.685 151.018 108.215C151.108 107.745 151.153 107.16 151.153 106.46C151.153 105.74 151.108 105.15 151.018 104.69C150.928 104.22 150.788 103.87 150.598 103.64C150.418 103.41 150.203 103.295 149.953 103.295ZM170.682 100.43H172.587V114.32H170.682V100.43ZM165.192 105.755H168.147V107.345H165.192V105.755ZM167.757 100.73H169.617V113.705H167.757V100.73ZM164.742 102.065H166.662C166.662 103.385 166.507 104.615 166.197 105.755C165.887 106.895 165.362 107.94 164.622 108.89C163.892 109.84 162.877 110.69 161.577 111.44L160.452 110.045C161.502 109.415 162.337 108.73 162.957 107.99C163.587 107.24 164.042 106.415 164.322 105.515C164.602 104.605 164.742 103.59 164.742 102.47V102.065ZM161.217 102.065H165.357V103.67H161.217V102.065ZM178.293 101.315H184.923V107.45H178.293V101.315ZM182.958 102.905H180.258V105.86H182.958V102.905ZM186.828 100.445H188.823V108.215H186.828V100.445ZM188.283 103.445H190.668V105.08H188.283V103.445ZM183.288 109.61H184.983V109.94C184.983 110.47 184.873 110.975 184.653 111.455C184.433 111.935 184.103 112.37 183.663 112.76C183.233 113.14 182.693 113.46 182.043 113.72C181.403 113.99 180.663 114.18 179.823 114.29L179.103 112.775C179.833 112.685 180.458 112.545 180.978 112.355C181.508 112.165 181.943 111.94 182.283 111.68C182.623 111.42 182.873 111.14 183.033 110.84C183.203 110.53 183.288 110.23 183.288 109.94V109.61ZM183.738 109.61H185.418V109.94C185.418 110.23 185.503 110.525 185.673 110.825C185.843 111.115 186.098 111.395 186.438 111.665C186.788 111.925 187.223 112.155 187.743 112.355C188.263 112.555 188.878 112.7 189.588 112.79L188.883 114.305C188.043 114.195 187.303 114.005 186.663 113.735C186.023 113.465 185.483 113.135 185.043 112.745C184.613 112.355 184.288 111.92 184.068 111.44C183.848 110.96 183.738 110.46 183.738 109.94V109.61ZM179.703 108.86H189.003V110.435H179.703V108.86ZM197.986 100.625C199.566 100.625 200.796 100.83 201.676 101.24C202.566 101.65 203.011 102.24 203.011 103.01C203.011 103.77 202.566 104.355 201.676 104.765C200.796 105.175 199.566 105.38 197.986 105.38C196.396 105.38 195.156 105.175 194.266 104.765C193.386 104.355 192.946 103.77 192.946 103.01C192.946 102.24 193.386 101.65 194.266 101.24C195.156 100.83 196.396 100.625 197.986 100.625ZM197.971 102.095C197.311 102.095 196.761 102.13 196.321 102.2C195.881 102.26 195.551 102.36 195.331 102.5C195.121 102.63 195.016 102.8 195.016 103.01C195.016 103.22 195.121 103.395 195.331 103.535C195.551 103.665 195.881 103.76 196.321 103.82C196.761 103.88 197.311 103.91 197.971 103.91C198.641 103.91 199.196 103.88 199.636 103.82C200.076 103.76 200.401 103.665 200.611 103.535C200.821 103.395 200.926 103.22 200.926 103.01C200.926 102.8 200.821 102.63 200.611 102.5C200.401 102.36 200.076 102.26 199.636 102.2C199.196 102.13 198.641 102.095 197.971 102.095ZM191.686 106.025H204.256V107.6H191.686V106.025ZM193.126 108.38H202.726V111.935H195.121V113.165H193.141V110.555H200.761V109.85H193.126V108.38ZM193.141 112.73H203.101V114.245H193.141V112.73ZM214.545 100.43H216.54V114.32H214.545V100.43ZM215.925 105.86H218.34V107.51H215.925V105.86ZM207.72 101.855H209.58C209.58 102.815 209.545 103.725 209.475 104.585C209.415 105.445 209.29 106.265 209.1 107.045C208.91 107.825 208.625 108.58 208.245 109.31C207.875 110.03 207.385 110.735 206.775 111.425L205.215 110.285C205.745 109.695 206.175 109.1 206.505 108.5C206.835 107.9 207.09 107.275 207.27 106.625C207.45 105.975 207.57 105.28 207.63 104.54C207.69 103.79 207.72 102.97 207.72 102.08V101.855ZM205.83 101.855H208.5V103.46H205.83V101.855ZM211.545 101.855H213.42C213.42 102.855 213.385 103.825 213.315 104.765C213.255 105.695 213.13 106.595 212.94 107.465C212.75 108.325 212.475 109.16 212.115 109.97C211.755 110.77 211.27 111.545 210.66 112.295L209.1 111.2C209.63 110.53 210.055 109.855 210.375 109.175C210.695 108.495 210.94 107.79 211.11 107.06C211.28 106.33 211.395 105.555 211.455 104.735C211.515 103.915 211.545 103.025 211.545 102.065V101.855ZM210.06 101.855H212.37V103.46H210.06V101.855ZM224.061 101.615H232.851V103.205H224.061V101.615ZM222.771 111.035H235.341V112.655H222.771V111.035ZM227.211 106.265H229.221V111.845H227.211V106.265ZM232.131 101.615H234.141V102.935C234.141 103.515 234.131 104.13 234.111 104.78C234.101 105.43 234.056 106.15 233.976 106.94C233.906 107.73 233.776 108.615 233.586 109.595L231.591 109.385C231.871 107.995 232.031 106.785 232.071 105.755C232.111 104.715 232.131 103.775 232.131 102.935V101.615ZM237.26 101.525H243.995V108.26H237.26V101.525ZM242.045 103.115H239.225V106.67H242.045V103.115ZM246.11 100.445H248.105V110.315H246.11V100.445ZM238.85 112.445H248.465V114.035H238.85V112.445ZM238.85 109.43H240.845V113.15H238.85V109.43ZM251.628 103.655H258.378V105.155H251.628V103.655ZM251.628 100.985H258.258V102.485H253.683V104.315H251.628V100.985ZM253.983 104.6H255.978V106.685H253.983V104.6ZM259.968 100.43H261.978V107.72H259.968V100.43ZM250.683 107.63L250.458 106.115C251.358 106.115 252.303 106.11 253.293 106.1C254.283 106.09 255.283 106.065 256.293 106.025C257.303 105.975 258.278 105.905 259.218 105.815L259.338 107.15C258.368 107.29 257.378 107.395 256.368 107.465C255.368 107.535 254.388 107.58 253.428 107.6C252.468 107.62 251.553 107.63 250.683 107.63ZM252.528 108.23H261.978V111.92H254.523V113.21H252.558V110.48H259.998V109.76H252.528V108.23ZM252.558 112.685H262.293V114.245H252.558V112.685ZM271.637 100.7H273.467V110.315H271.637V100.7ZM272.747 104.27H275.192V105.86H272.747V104.27ZM264.407 106.925H265.037C265.377 106.925 265.737 106.915 266.117 106.895C266.497 106.865 266.912 106.8 267.362 106.7L267.527 108.29C267.017 108.4 266.567 108.465 266.177 108.485C265.787 108.505 265.407 108.515 265.037 108.515H264.407V106.925ZM264.407 101.69H267.317V103.25H266.222V107.375H264.407V101.69ZM267.917 106.925H268.547C268.927 106.925 269.312 106.915 269.702 106.895C270.102 106.865 270.542 106.8 271.022 106.7L271.187 108.305C270.667 108.405 270.197 108.465 269.777 108.485C269.357 108.505 268.947 108.515 268.547 108.515H267.917V106.925ZM267.917 101.69H270.932V103.25H269.702V107.375H267.917V101.69ZM274.382 100.445H276.242V110.705H274.382V100.445ZM266.507 112.49H276.572V114.095H266.507V112.49ZM266.507 109.595H268.502V113.48H266.507V109.595ZM280.206 109.729V109.548C280.21 108.927 280.265 108.431 280.371 108.062C280.481 107.693 280.641 107.395 280.851 107.167C281.06 106.94 281.312 106.734 281.607 106.549C281.827 106.407 282.024 106.26 282.198 106.107C282.372 105.955 282.511 105.786 282.614 105.601C282.717 105.413 282.768 105.203 282.768 104.973C282.768 104.728 282.71 104.513 282.593 104.328C282.475 104.143 282.317 104.001 282.118 103.902C281.923 103.803 281.707 103.753 281.469 103.753C281.238 103.753 281.019 103.804 280.813 103.907C280.607 104.007 280.439 104.156 280.307 104.355C280.176 104.55 280.105 104.793 280.094 105.085H277.921C277.939 104.374 278.109 103.788 278.432 103.327C278.756 102.862 279.183 102.515 279.716 102.288C280.249 102.057 280.837 101.942 281.479 101.942C282.186 101.942 282.811 102.059 283.354 102.293C283.898 102.524 284.324 102.86 284.633 103.3C284.942 103.74 285.096 104.271 285.096 104.893C285.096 105.308 285.027 105.678 284.888 106.001C284.753 106.32 284.563 106.604 284.318 106.853C284.073 107.098 283.784 107.32 283.45 107.519C283.17 107.686 282.939 107.86 282.758 108.041C282.58 108.222 282.447 108.431 282.358 108.669C282.273 108.907 282.229 109.2 282.225 109.548V109.729H280.206ZM281.261 113.138C280.906 113.138 280.602 113.014 280.35 112.766C280.101 112.513 279.979 112.212 279.982 111.86C279.979 111.512 280.101 111.214 280.35 110.965C280.602 110.717 280.906 110.592 281.261 110.592C281.598 110.592 281.895 110.717 282.15 110.965C282.406 111.214 282.536 111.512 282.539 111.86C282.536 112.094 282.474 112.309 282.353 112.505C282.236 112.696 282.081 112.851 281.889 112.968C281.698 113.082 281.488 113.138 281.261 113.138Z" fill="black"/>
</svg>
