<svg width="40" height="40" viewBox="0 0 40 40" fill="none" xmlns="http://www.w3.org/2000/svg">
<path d="M19.9753 24.3198C22.3611 24.3198 24.2953 22.3856 24.2953 19.9998C24.2953 17.6139 22.3611 15.6798 19.9753 15.6798C17.5894 15.6798 15.6553 17.6139 15.6553 19.9998C15.6553 22.3856 17.5894 24.3198 19.9753 24.3198Z" stroke="black" stroke-width="2.4"/>
<path d="M22.5182 5.8189C21.9898 5.60002 21.3187 5.60002 19.9766 5.60002C18.6346 5.60002 17.9635 5.60002 17.435 5.8189C17.0854 5.96364 16.7677 6.17587 16.5001 6.44346C16.2325 6.71105 16.0203 7.02876 15.8755 7.37842C15.743 7.69954 15.6898 8.07538 15.6696 8.62114C15.6602 9.01559 15.551 9.40123 15.352 9.74197C15.1531 10.0827 14.8709 10.3674 14.532 10.5695C14.1876 10.7621 13.7999 10.8642 13.4053 10.8662C13.0106 10.8682 12.6219 10.7701 12.2755 10.581C11.7917 10.3247 11.4418 10.1835 11.0947 10.1375C10.3377 10.0379 9.57222 10.243 8.96641 10.7077C8.51425 11.0576 8.17729 11.6379 7.50625 12.8C6.83521 13.9621 6.49825 14.5424 6.42481 15.1112C6.37532 15.4863 6.40021 15.8674 6.49806 16.2328C6.5959 16.5983 6.76478 16.9408 6.99505 17.241C7.20817 17.5175 7.50625 17.7493 7.96849 18.0402C8.64961 18.4679 9.08737 19.1965 9.08737 20C9.08737 20.8035 8.64961 21.5322 7.96849 21.9584C7.50625 22.2507 7.20673 22.4826 6.99505 22.7591C6.76478 23.0592 6.5959 23.4018 6.49806 23.7672C6.40021 24.1326 6.37532 24.5138 6.42481 24.8888C6.49969 25.4562 6.83521 26.0379 7.50481 27.2C8.17729 28.3621 8.51281 28.9424 8.96641 29.2923C9.26656 29.5226 9.60913 29.6915 9.97456 29.7893C10.34 29.8872 10.7211 29.9121 11.0962 29.8626C11.4418 29.8165 11.7917 29.6754 12.2755 29.4191C12.6219 29.23 13.0106 29.1318 13.4053 29.1338C13.7999 29.1358 14.1876 29.2379 14.532 29.4306C15.2275 29.8338 15.6408 30.5754 15.6696 31.3789C15.6898 31.9261 15.7416 32.3005 15.8755 32.6216C16.0203 32.9713 16.2325 33.289 16.5001 33.5566C16.7677 33.8242 17.0854 34.0364 17.435 34.1811C17.9635 34.4 18.6346 34.4 19.9766 34.4C21.3187 34.4 21.9898 34.4 22.5182 34.1811C22.8679 34.0364 23.1856 33.8242 23.4532 33.5566C23.7208 33.289 23.933 32.9713 24.0778 32.6216C24.2102 32.3005 24.2635 31.9261 24.2837 31.3789C24.3125 30.5754 24.7258 29.8323 25.4213 29.4306C25.7657 29.2379 26.1534 29.1358 26.548 29.1338C26.9427 29.1318 27.3314 29.23 27.6778 29.4191C28.1616 29.6754 28.5115 29.8165 28.8571 29.8626C29.2322 29.9121 29.6133 29.8872 29.9787 29.7893C30.3442 29.6915 30.6867 29.5226 30.9869 29.2923C31.4405 28.9439 31.776 28.3621 32.447 27.2C33.1181 26.0379 33.455 25.4576 33.5285 24.8888C33.578 24.5138 33.5531 24.1326 33.4552 23.7672C33.3574 23.4018 33.1885 23.0592 32.9582 22.7591C32.7451 22.4826 32.4471 22.2507 31.9848 21.9599C31.6477 21.7545 31.3683 21.467 31.1726 21.1242C30.9769 20.7815 30.8714 20.3947 30.8659 20C30.8659 19.1965 31.3037 18.4679 31.9848 18.0416C32.4471 17.7493 32.7466 17.5175 32.9582 17.241C33.1885 16.9408 33.3574 16.5983 33.4552 16.2328C33.5531 15.8674 33.578 15.4863 33.5285 15.1112C33.4536 14.5439 33.1181 13.9621 32.4485 12.8C31.776 11.6379 31.4405 11.0576 30.9869 10.7077C30.6867 10.4774 30.3442 10.3085 29.9787 10.2107C29.6133 10.1129 29.2322 10.088 28.8571 10.1375C28.5115 10.1835 28.1616 10.3247 27.6763 10.581C27.3301 10.7698 26.9417 10.8678 26.5473 10.8658C26.153 10.8638 25.7656 10.7618 25.4213 10.5695C25.0824 10.3674 24.8002 10.0827 24.6013 9.74197C24.4023 9.40123 24.2931 9.01559 24.2837 8.62114C24.2635 8.07394 24.2117 7.69954 24.0778 7.37842C23.933 7.02876 23.7208 6.71105 23.4532 6.44346C23.1856 6.17587 22.8679 5.96364 22.5182 5.8189Z" stroke="black" stroke-width="2.4"/>
</svg>
