<svg width="40" height="40" viewBox="0 0 40 40" fill="none" xmlns="http://www.w3.org/2000/svg">
<path d="M20.3128 3.5201C22.7832 3.5201 24.7862 5.52248 24.7865 7.99276C24.7865 10.4632 22.7833 12.4664 20.3128 12.4664C17.8425 12.4662 15.8402 10.4631 15.8402 7.99276C15.8404 5.52261 17.8427 3.52032 20.3128 3.5201Z" stroke="#161616" stroke-width="2.24"/>
<path d="M30.7793 15.4797C31.4715 15.4798 32.1497 15.7359 32.6611 16.2131C33.1753 16.6929 33.4805 17.3612 33.4805 18.0754C33.4804 18.7897 33.1752 19.458 32.6611 19.9377C32.1497 20.4149 31.4714 20.6701 30.7793 20.6702H24.8018C24.7814 20.6702 24.777 20.6753 24.7822 20.6721C24.7851 20.6704 24.7808 20.6724 24.7705 20.6848C24.7652 20.6913 24.7566 20.7024 24.7461 20.72L24.709 20.7961L24.708 20.7991C24.6498 20.9395 24.5969 21.2854 24.6191 21.8586C24.6398 22.3913 24.7181 22.9865 24.8105 23.5276L25.0498 24.7903C25.0559 24.8146 25.0619 24.8388 25.0664 24.8635H25.0674L27.0938 35.6174H27.0918C27.1605 35.9599 27.1593 36.3123 27.084 36.6536C27.007 37.002 26.857 37.3287 26.6475 37.6145C26.438 37.9001 26.173 38.139 25.8721 38.3206C25.5713 38.5019 25.2386 38.6232 24.8936 38.6809C24.6346 38.7242 24.3706 38.7318 24.1104 38.7024L23.8516 38.6604C23.5089 38.589 23.181 38.4539 22.8877 38.26C22.5943 38.066 22.3395 37.8156 22.1426 37.5208C21.9482 37.2297 21.8151 36.9015 21.7529 36.5549L21.752 36.5559L20.3594 29.1145C20.3578 29.1089 20.3565 29.1023 20.3545 29.095C20.3444 29.059 20.3284 29.0044 20.3066 28.9377C20.2752 28.8414 20.2313 28.729 20.1826 28.6135C20.1331 28.7303 20.0897 28.8444 20.0576 28.9417C20.0355 29.0086 20.0191 29.0636 20.0088 29.0999C20.0068 29.1068 20.0045 29.1129 20.0029 29.1184L18.6133 36.5344L18.6143 36.5354C18.5531 36.8852 18.4187 37.2167 18.2227 37.51C18.0268 37.803 17.7739 38.0514 17.4824 38.2444C17.191 38.4373 16.8649 38.5724 16.5244 38.6438C16.1838 38.7152 15.8315 38.7229 15.4883 38.6663L15.4854 38.6653C14.7974 38.5496 14.166 38.1811 13.7422 37.6145C13.3159 37.0445 13.1405 36.3256 13.2734 35.6194L15.2998 24.8655L15.3672 24.5042L15.3711 24.4993L15.5557 23.5276C15.6481 22.9868 15.7274 22.3929 15.748 21.8606C15.7648 21.4303 15.7386 21.128 15.7002 20.9446L15.6592 20.801L15.6582 20.7981C15.6292 20.7278 15.6041 20.6934 15.5938 20.6809C15.5844 20.6696 15.582 20.6704 15.5879 20.6741C15.6013 20.6823 15.5964 20.6721 15.5469 20.6721H9.58105C8.88876 20.6721 8.21076 20.416 7.69922 19.9387C7.18505 19.4589 6.87988 18.7907 6.87988 18.0764L6.89453 17.8118C6.95983 17.1987 7.24927 16.635 7.69922 16.2151C8.21077 15.7377 8.88874 15.4817 9.58105 15.4817H29.6592V15.4797H30.7793ZM19.9961 29.1438H19.9971V29.1428L19.9961 29.1418V29.1438Z" stroke="#161616" stroke-width="2.24"/>
</svg>
