<svg width="40" height="40" viewBox="0 0 40 40" fill="none" xmlns="http://www.w3.org/2000/svg">
<path d="M19.9753 24.3199C22.3611 24.3199 24.2953 22.3858 24.2953 19.9999C24.2953 17.6141 22.3611 15.6799 19.9753 15.6799C17.5894 15.6799 15.6553 17.6141 15.6553 19.9999C15.6553 22.3858 17.5894 24.3199 19.9753 24.3199Z" stroke="#D0D0D0" stroke-width="2.4"/>
<path d="M22.5181 5.81898C21.9896 5.6001 21.3186 5.6001 19.9765 5.6001C18.6344 5.6001 17.9634 5.6001 17.4349 5.81898C17.0852 5.96372 16.7675 6.17595 16.4999 6.44354C16.2323 6.71113 16.0201 7.02884 15.8754 7.3785C15.7429 7.69962 15.6896 8.07546 15.6694 8.62122C15.6601 9.01568 15.5508 9.40131 15.3518 9.74205C15.1529 10.0828 14.8708 10.3675 14.5318 10.5695C14.1874 10.7622 13.7997 10.8643 13.4051 10.8663C13.0105 10.8683 12.6218 10.7702 12.2754 10.5811C11.7915 10.3247 11.4416 10.1836 11.0946 10.1375C10.3376 10.038 9.57206 10.2431 8.96625 10.7078C8.51409 11.0577 8.17713 11.638 7.50609 12.8001C6.83505 13.9622 6.49809 14.5425 6.42465 15.1113C6.37516 15.4863 6.40005 15.8675 6.4979 16.2329C6.59574 16.5983 6.76462 16.9409 6.99489 17.2411C7.20801 17.5175 7.50609 17.7494 7.96833 18.0403C8.64945 18.4679 9.08721 19.1966 9.08721 20.0001C9.08721 20.8036 8.64945 21.5323 7.96833 21.9585C7.50609 22.2508 7.20657 22.4827 6.99489 22.7591C6.76462 23.0593 6.59574 23.4019 6.4979 23.7673C6.40005 24.1327 6.37516 24.5138 6.42465 24.8889C6.49953 25.4563 6.83505 26.038 7.50465 27.2001C8.17713 28.3622 8.51265 28.9425 8.96625 29.2924C9.2664 29.5227 9.60897 29.6916 9.9744 29.7894C10.3398 29.8873 10.721 29.9121 11.096 29.8627C11.4416 29.8166 11.7915 29.6755 12.2754 29.4191C12.6218 29.23 13.0105 29.1319 13.4051 29.1339C13.7997 29.1359 14.1874 29.238 14.5318 29.4307C15.2274 29.8339 15.6406 30.5755 15.6694 31.379C15.6896 31.9262 15.7414 32.3006 15.8754 32.6217C16.0201 32.9714 16.2323 33.2891 16.4999 33.5567C16.7675 33.8242 17.0852 34.0365 17.4349 34.1812C17.9634 34.4001 18.6344 34.4001 19.9765 34.4001C21.3186 34.4001 21.9896 34.4001 22.5181 34.1812C22.8677 34.0365 23.1855 33.8242 23.453 33.5567C23.7206 33.2891 23.9329 32.9714 24.0776 32.6217C24.2101 32.3006 24.2634 31.9262 24.2835 31.379C24.3123 30.5755 24.7256 29.8324 25.4211 29.4307C25.7656 29.238 26.1532 29.1359 26.5479 29.1339C26.9425 29.1319 27.3312 29.23 27.6776 29.4191C28.1614 29.6755 28.5114 29.8166 28.857 29.8627C29.232 29.9121 29.6131 29.8873 29.9786 29.7894C30.344 29.6916 30.6866 29.5227 30.9867 29.2924C31.4403 28.9439 31.7758 28.3622 32.4469 27.2001C33.1179 26.038 33.4549 25.4577 33.5283 24.8889C33.5778 24.5138 33.5529 24.1327 33.4551 23.7673C33.3572 23.4019 33.1884 23.0593 32.9581 22.7591C32.745 22.4827 32.4469 22.2508 31.9847 21.9599C31.6476 21.7546 31.3681 21.4671 31.1725 21.1243C30.9768 20.7816 30.8712 20.3947 30.8658 20.0001C30.8658 19.1966 31.3035 18.4679 31.9847 18.0417C32.4469 17.7494 32.7464 17.5175 32.9581 17.2411C33.1884 16.9409 33.3572 16.5983 33.4551 16.2329C33.5529 15.8675 33.5778 15.4863 33.5283 15.1113C33.4534 14.5439 33.1179 13.9622 32.4483 12.8001C31.7758 11.638 31.4403 11.0577 30.9867 10.7078C30.6866 10.4775 30.344 10.3086 29.9786 10.2108C29.6131 10.1129 29.232 10.0881 28.857 10.1375C28.5114 10.1836 28.1614 10.3247 27.6762 10.5811C27.33 10.7699 26.9415 10.8679 26.5472 10.8659C26.1528 10.8639 25.7654 10.7619 25.4211 10.5695C25.0822 10.3675 24.8001 10.0828 24.6011 9.74205C24.4022 9.40131 24.2929 9.01568 24.2835 8.62122C24.2634 8.07402 24.2115 7.69962 24.0776 7.3785C23.9329 7.02884 23.7206 6.71113 23.453 6.44354C23.1855 6.17595 22.8677 5.96372 22.5181 5.81898Z" stroke="#D0D0D0" stroke-width="2.4"/>
</svg>
